<mxfile host="app.diagrams.net" modified="2023-07-19T08:24:56.797Z" agent="Mozilla/5.0 (Windows NT 10.0; Win64; x64) AppleWebKit/537.36 (KHTML, like Gecko) Chrome/115.0.0.0 Safari/537.36" etag="SO_79EfvINwXs8aFo20C" version="21.6.2" type="device">
  <diagram name="Page-1" id="TYgVy_4wv9ovuYa0YBVE">
    <mxGraphModel dx="1434" dy="750" grid="1" gridSize="10" guides="1" tooltips="1" connect="1" arrows="1" fold="1" page="1" pageScale="1" pageWidth="827" pageHeight="1169" math="0" shadow="0">
      <root>
        <mxCell id="0" />
        <mxCell id="1" parent="0" />
        <mxCell id="DIup330_IUM1Y5fQ8DOV-1" value="비회원" style="shape=umlActor;verticalLabelPosition=bottom;verticalAlign=top;html=1;outlineConnect=0;" vertex="1" parent="1">
          <mxGeometry x="30" y="150" width="30" height="60" as="geometry" />
        </mxCell>
        <mxCell id="DIup330_IUM1Y5fQ8DOV-6" value="비회원 회원가입&amp;amp;계정,비번찾기" style="swimlane;whiteSpace=wrap;html=1;" vertex="1" parent="1">
          <mxGeometry x="100" y="50" width="671" height="550" as="geometry" />
        </mxCell>
        <mxCell id="DIup330_IUM1Y5fQ8DOV-15" value="회원가입" style="ellipse;whiteSpace=wrap;html=1;" vertex="1" parent="DIup330_IUM1Y5fQ8DOV-6">
          <mxGeometry x="10" y="100" width="140" height="70" as="geometry" />
        </mxCell>
        <mxCell id="DIup330_IUM1Y5fQ8DOV-16" value="아이디&lt;br&gt;중복확인" style="ellipse;whiteSpace=wrap;html=1;" vertex="1" parent="DIup330_IUM1Y5fQ8DOV-6">
          <mxGeometry x="480" y="60" width="140" height="70" as="geometry" />
        </mxCell>
        <mxCell id="DIup330_IUM1Y5fQ8DOV-17" value="닉네임&lt;br&gt;중복확인" style="ellipse;whiteSpace=wrap;html=1;" vertex="1" parent="DIup330_IUM1Y5fQ8DOV-6">
          <mxGeometry x="480" y="140" width="140" height="70" as="geometry" />
        </mxCell>
        <mxCell id="DIup330_IUM1Y5fQ8DOV-18" value="비밀번호/&lt;br&gt;비밀번호확인&lt;br&gt;일치확인" style="ellipse;whiteSpace=wrap;html=1;" vertex="1" parent="DIup330_IUM1Y5fQ8DOV-6">
          <mxGeometry x="230" y="150" width="140" height="70" as="geometry" />
        </mxCell>
        <mxCell id="DIup330_IUM1Y5fQ8DOV-24" value="빈값체크" style="ellipse;whiteSpace=wrap;html=1;" vertex="1" parent="DIup330_IUM1Y5fQ8DOV-6">
          <mxGeometry x="230" y="240" width="140" height="70" as="geometry" />
        </mxCell>
        <mxCell id="DIup330_IUM1Y5fQ8DOV-26" value="중복확인" style="ellipse;whiteSpace=wrap;html=1;" vertex="1" parent="DIup330_IUM1Y5fQ8DOV-6">
          <mxGeometry x="230" y="60" width="140" height="70" as="geometry" />
        </mxCell>
        <mxCell id="DIup330_IUM1Y5fQ8DOV-27" value="전화번호&lt;br&gt;중복확인" style="ellipse;whiteSpace=wrap;html=1;" vertex="1" parent="DIup330_IUM1Y5fQ8DOV-6">
          <mxGeometry x="480" y="220" width="140" height="70" as="geometry" />
        </mxCell>
        <mxCell id="DIup330_IUM1Y5fQ8DOV-30" value="&amp;lt;&amp;lt;include&amp;gt;&amp;gt;" style="html=1;verticalAlign=bottom;labelBackgroundColor=none;endArrow=open;endFill=0;dashed=1;rounded=0;exitX=1;exitY=0.5;exitDx=0;exitDy=0;entryX=0;entryY=0.5;entryDx=0;entryDy=0;" edge="1" parent="DIup330_IUM1Y5fQ8DOV-6" source="DIup330_IUM1Y5fQ8DOV-15" target="DIup330_IUM1Y5fQ8DOV-26">
          <mxGeometry width="160" relative="1" as="geometry">
            <mxPoint x="340" y="145" as="sourcePoint" />
            <mxPoint x="670" y="370" as="targetPoint" />
          </mxGeometry>
        </mxCell>
        <mxCell id="DIup330_IUM1Y5fQ8DOV-33" value="&amp;lt;&amp;lt;include&amp;gt;&amp;gt;" style="html=1;verticalAlign=bottom;labelBackgroundColor=none;endArrow=open;endFill=0;dashed=1;rounded=0;exitX=1;exitY=0.5;exitDx=0;exitDy=0;entryX=-0.004;entryY=0.357;entryDx=0;entryDy=0;entryPerimeter=0;" edge="1" parent="DIup330_IUM1Y5fQ8DOV-6" source="DIup330_IUM1Y5fQ8DOV-15" target="DIup330_IUM1Y5fQ8DOV-18">
          <mxGeometry width="160" relative="1" as="geometry">
            <mxPoint x="160" y="145" as="sourcePoint" />
            <mxPoint x="236" y="205" as="targetPoint" />
          </mxGeometry>
        </mxCell>
        <mxCell id="DIup330_IUM1Y5fQ8DOV-34" value="" style="endArrow=block;startArrow=none;endFill=0;startFill=0;endSize=8;html=1;verticalAlign=bottom;dashed=1;labelBackgroundColor=none;rounded=0;exitX=0;exitY=0.5;exitDx=0;exitDy=0;entryX=1;entryY=0.5;entryDx=0;entryDy=0;" edge="1" parent="DIup330_IUM1Y5fQ8DOV-6" source="DIup330_IUM1Y5fQ8DOV-16" target="DIup330_IUM1Y5fQ8DOV-26">
          <mxGeometry width="160" relative="1" as="geometry">
            <mxPoint x="360" y="340" as="sourcePoint" />
            <mxPoint x="520" y="340" as="targetPoint" />
          </mxGeometry>
        </mxCell>
        <mxCell id="DIup330_IUM1Y5fQ8DOV-35" value="" style="endArrow=block;startArrow=none;endFill=0;startFill=0;endSize=8;html=1;verticalAlign=bottom;dashed=1;labelBackgroundColor=none;rounded=0;exitX=0;exitY=0.5;exitDx=0;exitDy=0;entryX=1.014;entryY=0.686;entryDx=0;entryDy=0;entryPerimeter=0;" edge="1" parent="DIup330_IUM1Y5fQ8DOV-6" source="DIup330_IUM1Y5fQ8DOV-17" target="DIup330_IUM1Y5fQ8DOV-26">
          <mxGeometry width="160" relative="1" as="geometry">
            <mxPoint x="490" y="105" as="sourcePoint" />
            <mxPoint x="380" y="105" as="targetPoint" />
          </mxGeometry>
        </mxCell>
        <mxCell id="DIup330_IUM1Y5fQ8DOV-36" value="" style="endArrow=block;startArrow=none;endFill=0;startFill=0;endSize=8;html=1;verticalAlign=bottom;dashed=1;labelBackgroundColor=none;rounded=0;exitX=-0.014;exitY=0.371;exitDx=0;exitDy=0;entryX=0.964;entryY=0.8;entryDx=0;entryDy=0;entryPerimeter=0;exitPerimeter=0;" edge="1" parent="DIup330_IUM1Y5fQ8DOV-6" source="DIup330_IUM1Y5fQ8DOV-27" target="DIup330_IUM1Y5fQ8DOV-26">
          <mxGeometry width="160" relative="1" as="geometry">
            <mxPoint x="490" y="185" as="sourcePoint" />
            <mxPoint x="382" y="118" as="targetPoint" />
          </mxGeometry>
        </mxCell>
        <mxCell id="DIup330_IUM1Y5fQ8DOV-37" value="&amp;lt;&amp;lt;include&amp;gt;&amp;gt;" style="html=1;verticalAlign=bottom;labelBackgroundColor=none;endArrow=open;endFill=0;dashed=1;rounded=0;exitX=1;exitY=0.5;exitDx=0;exitDy=0;entryX=0;entryY=0.5;entryDx=0;entryDy=0;" edge="1" parent="DIup330_IUM1Y5fQ8DOV-6" source="DIup330_IUM1Y5fQ8DOV-15" target="DIup330_IUM1Y5fQ8DOV-24">
          <mxGeometry width="160" relative="1" as="geometry">
            <mxPoint x="160" y="145" as="sourcePoint" />
            <mxPoint x="239" y="195" as="targetPoint" />
          </mxGeometry>
        </mxCell>
        <mxCell id="DIup330_IUM1Y5fQ8DOV-38" value="비밀번호찾기" style="ellipse;whiteSpace=wrap;html=1;" vertex="1" parent="DIup330_IUM1Y5fQ8DOV-6">
          <mxGeometry x="50" y="460" width="140" height="70" as="geometry" />
        </mxCell>
        <mxCell id="DIup330_IUM1Y5fQ8DOV-39" value="아이디찾기" style="ellipse;whiteSpace=wrap;html=1;" vertex="1" parent="DIup330_IUM1Y5fQ8DOV-6">
          <mxGeometry x="220" y="340" width="140" height="70" as="geometry" />
        </mxCell>
        <mxCell id="DIup330_IUM1Y5fQ8DOV-40" value="&amp;lt;&amp;lt;include&amp;gt;&amp;gt;" style="html=1;verticalAlign=bottom;labelBackgroundColor=none;endArrow=open;endFill=0;dashed=1;rounded=0;exitX=1;exitY=0.5;exitDx=0;exitDy=0;entryX=0;entryY=0.5;entryDx=0;entryDy=0;" edge="1" parent="DIup330_IUM1Y5fQ8DOV-6" source="DIup330_IUM1Y5fQ8DOV-38" target="DIup330_IUM1Y5fQ8DOV-39">
          <mxGeometry width="160" relative="1" as="geometry">
            <mxPoint x="160" y="145" as="sourcePoint" />
            <mxPoint x="240" y="105" as="targetPoint" />
          </mxGeometry>
        </mxCell>
        <mxCell id="DIup330_IUM1Y5fQ8DOV-41" value="전화번호&lt;br&gt;인증" style="ellipse;whiteSpace=wrap;html=1;" vertex="1" parent="DIup330_IUM1Y5fQ8DOV-6">
          <mxGeometry x="450" y="370" width="140" height="70" as="geometry" />
        </mxCell>
        <mxCell id="DIup330_IUM1Y5fQ8DOV-42" value="&amp;lt;&amp;lt;include&amp;gt;&amp;gt;" style="html=1;verticalAlign=bottom;labelBackgroundColor=none;endArrow=open;endFill=0;dashed=1;rounded=0;exitX=1;exitY=0.5;exitDx=0;exitDy=0;entryX=0;entryY=0.5;entryDx=0;entryDy=0;" edge="1" parent="DIup330_IUM1Y5fQ8DOV-6" source="DIup330_IUM1Y5fQ8DOV-39" target="DIup330_IUM1Y5fQ8DOV-41">
          <mxGeometry width="160" relative="1" as="geometry">
            <mxPoint x="180" y="385" as="sourcePoint" />
            <mxPoint x="320" y="480" as="targetPoint" />
          </mxGeometry>
        </mxCell>
        <mxCell id="DIup330_IUM1Y5fQ8DOV-43" value="&amp;lt;&amp;lt;include&amp;gt;&amp;gt;" style="html=1;verticalAlign=bottom;labelBackgroundColor=none;endArrow=open;endFill=0;dashed=1;rounded=0;exitX=1;exitY=0.5;exitDx=0;exitDy=0;entryX=0;entryY=0.5;entryDx=0;entryDy=0;" edge="1" parent="DIup330_IUM1Y5fQ8DOV-6" source="DIup330_IUM1Y5fQ8DOV-38" target="DIup330_IUM1Y5fQ8DOV-41">
          <mxGeometry width="160" relative="1" as="geometry">
            <mxPoint x="234" y="464.5" as="sourcePoint" />
            <mxPoint x="394" y="464.5" as="targetPoint" />
          </mxGeometry>
        </mxCell>
        <mxCell id="DIup330_IUM1Y5fQ8DOV-44" value="" style="endArrow=open;endFill=1;endSize=12;html=1;rounded=0;entryX=0;entryY=0.5;entryDx=0;entryDy=0;" edge="1" parent="1" source="DIup330_IUM1Y5fQ8DOV-1" target="DIup330_IUM1Y5fQ8DOV-15">
          <mxGeometry width="160" relative="1" as="geometry">
            <mxPoint x="460" y="390" as="sourcePoint" />
            <mxPoint x="620" y="390" as="targetPoint" />
          </mxGeometry>
        </mxCell>
        <mxCell id="DIup330_IUM1Y5fQ8DOV-45" value="" style="endArrow=open;endFill=1;endSize=12;html=1;rounded=0;entryX=0;entryY=0;entryDx=0;entryDy=0;exitX=1;exitY=1;exitDx=0;exitDy=0;exitPerimeter=0;" edge="1" parent="1" source="DIup330_IUM1Y5fQ8DOV-1" target="DIup330_IUM1Y5fQ8DOV-38">
          <mxGeometry width="160" relative="1" as="geometry">
            <mxPoint x="70" y="191" as="sourcePoint" />
            <mxPoint x="120" y="195" as="targetPoint" />
          </mxGeometry>
        </mxCell>
        <mxCell id="DIup330_IUM1Y5fQ8DOV-46" value="" style="endArrow=open;endFill=1;endSize=12;html=1;rounded=0;entryX=0;entryY=0.5;entryDx=0;entryDy=0;" edge="1" parent="1" source="DIup330_IUM1Y5fQ8DOV-1" target="DIup330_IUM1Y5fQ8DOV-39">
          <mxGeometry width="160" relative="1" as="geometry">
            <mxPoint x="70" y="220" as="sourcePoint" />
            <mxPoint x="181" y="530" as="targetPoint" />
          </mxGeometry>
        </mxCell>
      </root>
    </mxGraphModel>
  </diagram>
</mxfile>
